<svg width="12" height="12" viewBox="0 0 12 12" fill="none" xmlns="http://www.w3.org/2000/svg">
<path d="M9.88817 5.74563L8.8162 4.65549C8.75186 4.59254 8.66733 4.55436 8.57756 4.54771C8.48778 4.54106 8.39855 4.56637 8.32564 4.61915C8.28185 4.64856 8.24538 4.68761 8.21904 4.73331C8.19269 4.77901 8.17717 4.83014 8.17366 4.88277C8.17015 4.9354 8.17875 4.98813 8.19879 5.03692C8.21884 5.08572 8.2498 5.12926 8.2893 5.16422L8.76169 5.63662H6.36338V3.23831L6.83578 3.7107C6.87074 3.7502 6.91428 3.78116 6.96308 3.80121C7.01187 3.82125 7.0646 3.82985 7.11723 3.82634C7.16986 3.82283 7.22099 3.80731 7.26669 3.78096C7.31239 3.75462 7.35144 3.71815 7.38085 3.67436C7.43363 3.60145 7.45894 3.51221 7.45229 3.42244C7.44564 3.33267 7.40746 3.24814 7.34451 3.1838L6.25437 2.11183C6.22203 2.07658 6.18272 2.04844 6.13893 2.02919C6.09514 2.00994 6.04783 2 6 2C5.95217 2 5.90486 2.00994 5.86107 2.02919C5.81728 2.04844 5.77797 2.07658 5.74563 2.11183L4.65549 3.1838C4.59254 3.24814 4.55436 3.33267 4.54771 3.42244C4.54106 3.51221 4.56637 3.60145 4.61915 3.67436C4.64856 3.71815 4.68761 3.75462 4.73331 3.78096C4.77901 3.80731 4.83014 3.82283 4.88277 3.82634C4.9354 3.82985 4.98813 3.82125 5.03692 3.80121C5.08572 3.78116 5.12926 3.7502 5.16422 3.7107L5.63662 3.23831V5.63662H3.23831L3.7107 5.16422C3.7502 5.12926 3.78116 5.08572 3.80121 5.03692C3.82125 4.98813 3.82985 4.9354 3.82634 4.88277C3.82283 4.83014 3.80731 4.77901 3.78096 4.73331C3.75462 4.68761 3.71815 4.64856 3.67436 4.61915C3.60145 4.56637 3.51221 4.54106 3.42244 4.54771C3.33267 4.55436 3.24814 4.59254 3.1838 4.65549L2.11183 5.74563C2.07658 5.77797 2.04844 5.81728 2.02919 5.86107C2.00994 5.90486 2 5.95217 2 6C2 6.04783 2.00994 6.09514 2.02919 6.13893C2.04844 6.18272 2.07658 6.22203 2.11183 6.25437L3.1838 7.34451C3.24814 7.40746 3.33267 7.44564 3.42244 7.45229C3.51221 7.45894 3.60145 7.43363 3.67436 7.38085C3.71815 7.35144 3.75462 7.31239 3.78096 7.26669C3.80731 7.22099 3.82283 7.16986 3.82634 7.11723C3.82985 7.0646 3.82125 7.01187 3.80121 6.96308C3.78116 6.91428 3.7502 6.87074 3.7107 6.83578L3.23831 6.36338H5.63662V8.76169L5.16422 8.2893C5.12926 8.2498 5.08572 8.21884 5.03692 8.19879C4.98813 8.17875 4.9354 8.17015 4.88277 8.17366C4.83014 8.17717 4.77901 8.19269 4.73331 8.21904C4.68761 8.24538 4.64856 8.28185 4.61915 8.32564C4.56637 8.39855 4.54106 8.48778 4.54771 8.57756C4.55436 8.66733 4.59254 8.75186 4.65549 8.8162L5.74563 9.88817C5.77797 9.92342 5.81728 9.95156 5.86107 9.97081C5.90486 9.99006 5.95217 10 6 10C6.04783 10 6.09514 9.99006 6.13893 9.97081C6.18272 9.95156 6.22203 9.92342 6.25437 9.88817L7.34451 8.8162C7.40746 8.75186 7.44564 8.66733 7.45229 8.57756C7.45894 8.48778 7.43363 8.39855 7.38085 8.32564C7.35144 8.28185 7.31239 8.24538 7.26669 8.21904C7.22099 8.19269 7.16986 8.17717 7.11723 8.17366C7.0646 8.17015 7.01187 8.17875 6.96308 8.19879C6.91428 8.21884 6.87074 8.2498 6.83578 8.2893L6.36338 8.76169V6.36338H8.76169L8.2893 6.83578C8.2498 6.87074 8.21884 6.91428 8.19879 6.96308C8.17875 7.01187 8.17015 7.0646 8.17366 7.11723C8.17717 7.16986 8.19269 7.22099 8.21904 7.26669C8.24538 7.31239 8.28185 7.35144 8.32564 7.38085C8.39855 7.43363 8.48778 7.45894 8.57756 7.45229C8.66733 7.44564 8.75186 7.40746 8.8162 7.34451L9.88817 6.25437C9.92342 6.22203 9.95156 6.18272 9.97081 6.13893C9.99006 6.09514 10 6.04783 10 6C10 5.95217 9.99006 5.90486 9.97081 5.86107C9.95156 5.81728 9.92342 5.77797 9.88817 5.74563Z" fill="#404040" fill-opacity="0.75"/>
</svg>
