<svg width="20" height="20" viewBox="0 0 20 20" fill="none" xmlns="http://www.w3.org/2000/svg">
<path fill-rule="evenodd" clip-rule="evenodd" d="M6.2 3.5H14C15.5 3.5 16.5 4.5 16.5 6V13.8C16.5 15.5 15.5 16.5 13.8 16.5H6.2C4.5 16.5 3.5 15.5 3.5 13.8V6.2C3.5 4.6 4.5 3.5 6.2 3.5ZM5 5C5.30006 4.69994 5.77565 4.6 6.2 4.6H13.8C14.2243 4.6 14.6999 4.69994 15 5C15.3001 5.30006 15.4 5.77565 15.4 6.2V13.8C15.4 14.2243 15.3001 14.6999 15 15C14.6999 15.3001 14.2243 15.4 13.8 15.4H6.2C5.77565 15.4 5.30006 15.3001 5 15C4.69994 14.6999 4.6 14.2243 4.6 13.8V6.2C4.6 5.77565 4.69994 5.30006 5 5Z" fill="white" fill-opacity="0.75"/>
<path d="M6 7C6 6.44772 6.44772 6 7 6H13C13.5523 6 14 6.44772 14 7V13C14 13.5523 13.5523 14 13 14H7C6.44772 14 6 13.5523 6 13V7Z" fill="white" fill-opacity="0.75"/>
<g filter="url(#filter0_i_22_6)">
<path d="M12.3264 9.87661L8.20965 7.28892C8.00987 7.16334 7.75 7.30694 7.75 7.54291V12.483C7.75 12.7134 7.99884 12.8578 8.19884 12.7435L12.3156 10.3911C12.5123 10.2787 12.5182 9.99717 12.3264 9.87661Z" fill="#D95A5A"/>
</g>
<path d="M8.07661 7.50058L12.1934 10.0883C12.2254 10.1084 12.2244 10.1553 12.1916 10.174L8.07481 12.5265C8.04147 12.5455 8 12.5214 8 12.483V7.54291C8 7.50359 8.04331 7.47965 8.07661 7.50058Z" stroke="black" stroke-opacity="0.5" stroke-width="0.5" stroke-linejoin="round"/>
<defs>
<filter id="filter0_i_22_6" x="7.75" y="7.24243" width="4.71678" height="5.54105" filterUnits="userSpaceOnUse" color-interpolation-filters="sRGB">
<feFlood flood-opacity="0" result="BackgroundImageFix"/>
<feBlend mode="normal" in="SourceGraphic" in2="BackgroundImageFix" result="shape"/>
<feColorMatrix in="SourceAlpha" type="matrix" values="0 0 0 0 0 0 0 0 0 0 0 0 0 0 0 0 0 0 127 0" result="hardAlpha"/>
<feOffset/>
<feGaussianBlur stdDeviation="0.125"/>
<feComposite in2="hardAlpha" operator="arithmetic" k2="-1" k3="1"/>
<feColorMatrix type="matrix" values="0 0 0 0 0 0 0 0 0 0 0 0 0 0 0 0 0 0 0.5 0"/>
<feBlend mode="normal" in2="shape" result="effect1_innerShadow_22_6"/>
</filter>
</defs>
</svg>
