<svg width="12" height="12" viewBox="0 0 12 12" fill="none" xmlns="http://www.w3.org/2000/svg">
<path d="M9.90938 8.72358L7.17604 5.98126L9.91562 3.27434C10.0281 3.16189 10.0281 2.97866 9.91562 2.86622L9.13646 2.08329C9.08229 2.02915 9.00938 2 8.93229 2C8.85521 2 8.78229 2.03123 8.72812 2.08329L6.00104 4.78188L3.26979 2.08537C3.21563 2.03123 3.14271 2.00208 3.06562 2.00208C2.98854 2.00208 2.91563 2.03332 2.86146 2.08537L2.08438 2.8683C1.97188 2.98074 1.97188 3.16398 2.08438 3.27642L4.82396 5.98334L2.09271 8.72358C2.03854 8.77772 2.00729 8.8506 2.00729 8.92764C2.00729 9.00469 2.03646 9.07756 2.09271 9.1317L2.87188 9.91463C2.92813 9.97085 3.00104 10 3.07604 10C3.14896 10 3.22396 9.97293 3.28021 9.91463L6.00104 7.18272L8.72396 9.91255C8.78021 9.96877 8.85312 9.99792 8.92812 9.99792C9.00104 9.99792 9.07604 9.97085 9.13229 9.91255L9.91146 9.12962C9.96563 9.07548 9.99687 9.0026 9.99687 8.92556C9.99479 8.8506 9.96354 8.77772 9.90938 8.72358Z" fill="white" fill-opacity="0.75"/>
</svg>
