<svg width="12" height="12" viewBox="0 0 12 12" fill="none" xmlns="http://www.w3.org/2000/svg">
<path d="M10.8602 5.68204L9.52025 4.31936C9.43982 4.24067 9.33416 4.19296 9.22195 4.18464C9.10973 4.17633 8.99819 4.20796 8.90705 4.27394C8.85231 4.3107 8.80673 4.35952 8.77379 4.41664C8.74086 4.47376 8.72146 4.53767 8.71707 4.60346C8.71269 4.66925 8.72344 4.73517 8.74849 4.79616C8.77355 4.85714 8.81225 4.91158 8.86162 4.95528L9.45212 5.54577H6.45423V2.54788L7.04472 3.13838C7.08842 3.18775 7.14286 3.22645 7.20384 3.25151C7.26483 3.27656 7.33075 3.28731 7.39654 3.28293C7.46233 3.27854 7.52624 3.25914 7.58336 3.22621C7.64048 3.19327 7.6893 3.14769 7.72606 3.09295C7.79204 3.00181 7.82367 2.89027 7.81536 2.77805C7.80704 2.66584 7.75933 2.56018 7.68064 2.47975L6.31796 1.13978C6.27754 1.09573 6.2284 1.06055 6.17366 1.03649C6.11893 1.01243 6.05979 1 6 1C5.94021 1 5.88107 1.01243 5.82634 1.03649C5.7716 1.06055 5.72246 1.09573 5.68204 1.13978L4.31936 2.47975C4.24067 2.56018 4.19296 2.66584 4.18464 2.77805C4.17633 2.89027 4.20796 3.00181 4.27394 3.09295C4.3107 3.14769 4.35952 3.19327 4.41664 3.22621C4.47376 3.25914 4.53767 3.27854 4.60346 3.28293C4.66925 3.28731 4.73517 3.27656 4.79616 3.25151C4.85714 3.22645 4.91158 3.18775 4.95528 3.13838L5.54577 2.54788V5.54577H2.54788L3.13838 4.95528C3.18775 4.91158 3.22645 4.85714 3.25151 4.79616C3.27656 4.73517 3.28731 4.66925 3.28293 4.60346C3.27854 4.53767 3.25914 4.47376 3.22621 4.41664C3.19327 4.35952 3.14769 4.3107 3.09295 4.27394C3.00181 4.20796 2.89027 4.17633 2.77805 4.18464C2.66584 4.19296 2.56018 4.24067 2.47975 4.31936L1.13978 5.68204C1.09573 5.72246 1.06055 5.7716 1.03649 5.82634C1.01243 5.88107 1 5.94021 1 6C1 6.05979 1.01243 6.11893 1.03649 6.17366C1.06055 6.2284 1.09573 6.27754 1.13978 6.31796L2.47975 7.68064C2.56018 7.75933 2.66584 7.80704 2.77805 7.81536C2.89027 7.82367 3.00181 7.79204 3.09295 7.72606C3.14769 7.6893 3.19327 7.64048 3.22621 7.58336C3.25914 7.52624 3.27854 7.46233 3.28293 7.39654C3.28731 7.33075 3.27656 7.26483 3.25151 7.20384C3.22645 7.14286 3.18775 7.08842 3.13838 7.04472L2.54788 6.45423H5.54577V9.45212L4.95528 8.86162C4.91158 8.81225 4.85714 8.77355 4.79616 8.74849C4.73517 8.72344 4.66925 8.71269 4.60346 8.71707C4.53767 8.72146 4.47376 8.74086 4.41664 8.77379C4.35952 8.80673 4.3107 8.85231 4.27394 8.90705C4.20796 8.99819 4.17633 9.10973 4.18464 9.22195C4.19296 9.33416 4.24067 9.43982 4.31936 9.52025L5.68204 10.8602C5.72246 10.9043 5.7716 10.9394 5.82634 10.9635C5.88107 10.9876 5.94021 11 6 11C6.05979 11 6.11893 10.9876 6.17366 10.9635C6.2284 10.9394 6.27754 10.9043 6.31796 10.8602L7.68064 9.52025C7.75933 9.43982 7.80704 9.33416 7.81536 9.22195C7.82367 9.10973 7.79204 8.99819 7.72606 8.90705C7.6893 8.85231 7.64048 8.80673 7.58336 8.77379C7.52624 8.74086 7.46233 8.72146 7.39654 8.71707C7.33075 8.71269 7.26483 8.72344 7.20384 8.74849C7.14286 8.77355 7.08842 8.81225 7.04472 8.86162L6.45423 9.45212V6.45423H9.45212L8.86162 7.04472C8.81225 7.08842 8.77355 7.14286 8.74849 7.20384C8.72344 7.26483 8.71269 7.33075 8.71707 7.39654C8.72146 7.46233 8.74086 7.52624 8.77379 7.58336C8.80673 7.64048 8.85231 7.6893 8.90705 7.72606C8.99819 7.79204 9.10973 7.82367 9.22195 7.81536C9.33416 7.80704 9.43982 7.75933 9.52025 7.68064L10.8602 6.31796C10.9043 6.27754 10.9394 6.2284 10.9635 6.17366C10.9876 6.11893 11 6.05979 11 6C11 5.94021 10.9876 5.88107 10.9635 5.82634C10.9394 5.7716 10.9043 5.72246 10.8602 5.68204Z" fill="white" fill-opacity="0.75"/>
</svg>
