<svg width="12" height="12" viewBox="0 0 12 12" fill="none" xmlns="http://www.w3.org/2000/svg">
<g clip-path="url(#clip0_10_29)">
<path d="M9.12858 3.05063L8.98077 2.70594L9.12858 3.05056V3.05063ZM5.50652 1C5.29237 0.999997 5.08565 1.07853 4.92552 1.22073C4.76538 1.36293 4.66296 1.55891 4.63764 1.77156L5.38239 1.86025C5.386 1.82987 5.40063 1.80186 5.42351 1.78154C5.44639 1.76122 5.47592 1.75 5.50652 1.75V1ZM6.49352 1H5.50652V1.75H6.49352V1ZM7.36239 1.77156C7.33708 1.55891 7.23465 1.36293 7.07452 1.22073C6.91439 1.07853 6.70767 0.999997 6.49352 1V1.75C6.52412 1.75 6.55365 1.76122 6.57653 1.78154C6.5994 1.80186 6.61403 1.82987 6.61764 1.86025L7.36239 1.77156ZM7.43858 2.41156L7.36239 1.77156L6.61764 1.86025L6.69377 2.50025L7.43858 2.41156ZM8.98077 2.70594L8.38621 2.96094L8.68177 3.65019L9.27633 3.39519L8.98077 2.70594ZM10.0834 3.07262C9.97632 2.88716 9.80495 2.74741 9.60174 2.67983C9.39853 2.61225 9.17759 2.62154 8.98077 2.70594L9.27633 3.39519C9.30445 3.38312 9.33603 3.38184 9.36507 3.3915C9.39411 3.40115 9.4186 3.42112 9.43389 3.44762L10.0834 3.07262ZM10.5769 3.92738L10.0834 3.07262L9.43389 3.44762L9.92739 4.30237L10.5769 3.92738ZM10.3431 5.06563C10.5146 4.93737 10.6332 4.75068 10.6762 4.5409C10.7193 4.33113 10.684 4.11284 10.5769 3.92738L9.92739 4.30237C9.94269 4.32888 9.94774 4.36007 9.94157 4.39004C9.93541 4.42001 9.91847 4.44668 9.89396 4.465L10.3431 5.06563ZM9.78164 5.4855L10.3431 5.06563L9.89396 4.465L9.33252 4.88487L9.78164 5.4855ZM10.3431 6.93437L9.78164 6.5145L9.33252 7.11513L9.89396 7.535L10.3431 6.93437ZM10.5769 8.07263C10.684 7.88716 10.7193 7.66887 10.6762 7.4591C10.6332 7.24932 10.5146 7.06263 10.3431 6.93437L9.89396 7.535C9.91847 7.55332 9.93541 7.57999 9.94157 7.60996C9.94774 7.63993 9.94269 7.67112 9.92739 7.69763L10.5769 8.07263ZM10.0834 8.92737L10.5769 8.07263L9.92739 7.69763L9.43389 8.55237L10.0834 8.92737ZM8.98077 9.29406C9.17759 9.37846 9.39853 9.38775 9.60174 9.32017C9.80495 9.25259 9.97632 9.11284 10.0834 8.92737L9.43389 8.55237C9.41859 8.57887 9.3941 8.59883 9.36506 8.60848C9.33602 8.61813 9.30446 8.61681 9.27633 8.60475L8.98077 9.29406ZM8.38621 9.03906L8.98077 9.29406L9.27633 8.60475L8.68183 8.34981L8.38621 9.03906ZM7.36239 10.2284L7.43852 9.58844L6.69383 9.49975L6.61764 10.1397L7.36239 10.2284ZM6.49352 11C6.70767 11 6.91439 10.9215 7.07452 10.7793C7.23465 10.6371 7.33708 10.4411 7.36239 10.2284L6.61764 10.1397C6.61403 10.1701 6.5994 10.1981 6.57653 10.2185C6.55365 10.2388 6.52412 10.25 6.49352 10.25V11ZM5.50652 11H6.49352V10.25H5.50652V11ZM4.63764 10.2284C4.66296 10.4411 4.76538 10.6371 4.92552 10.7793C5.08565 10.9215 5.29237 11 5.50652 11V10.25C5.47592 10.25 5.44639 10.2388 5.42351 10.2185C5.40063 10.1981 5.386 10.1701 5.38239 10.1397L4.63764 10.2284ZM4.57439 9.69694L4.63764 10.2284L5.38239 10.1397L5.31914 9.60825L4.57439 9.69694ZM3.21427 8.39437L2.72371 8.60475L3.01927 9.29406L3.50983 9.08369L3.21421 8.39437H3.21427ZM2.72371 8.60475C2.69559 8.6168 2.66397 8.61813 2.63495 8.60848C2.60592 8.59882 2.58144 8.57886 2.56614 8.55237L1.91665 8.92737C2.02372 9.11284 2.19509 9.25259 2.3983 9.32017C2.60151 9.38775 2.82245 9.37846 3.01927 9.29406L2.72371 8.60475ZM2.56614 8.55237L2.07264 7.69763L1.42315 8.07263L1.91665 8.92737L2.56614 8.55237ZM2.07264 7.69763C2.05735 7.67112 2.0523 7.63993 2.05846 7.60996C2.06463 7.57999 2.08157 7.55332 2.10608 7.535L1.6569 6.93437C1.48539 7.06263 1.36688 7.24932 1.3238 7.4591C1.28072 7.66887 1.31607 7.88716 1.42315 8.07263L2.07264 7.69763ZM2.10608 7.535L2.48933 7.24844L2.04008 6.64781L1.6569 6.93437L2.10608 7.535ZM1.6569 5.06563L2.04014 5.35225L2.48933 4.75163L2.10608 4.465L1.6569 5.06563ZM1.42315 3.92738C1.31607 4.11284 1.28072 4.33113 1.3238 4.5409C1.36688 4.75068 1.48539 4.93737 1.6569 5.06563L2.10608 4.465C2.08157 4.44668 2.06463 4.42001 2.05846 4.39004C2.0523 4.36007 2.05735 4.32888 2.07264 4.30237L1.42315 3.92738ZM1.91665 3.07262L1.42315 3.92738L2.07264 4.30237L2.56614 3.44762L1.91665 3.07262ZM3.01927 2.70594C2.82245 2.62154 2.60151 2.61225 2.3983 2.67983C2.19509 2.74741 2.02372 2.88716 1.91665 3.07262L2.56614 3.44762C2.58144 3.42114 2.60592 3.40118 2.63495 3.39152C2.66397 3.38187 2.69559 3.3832 2.72371 3.39525L3.01927 2.70594ZM3.50983 2.91631L3.01927 2.70594L2.72371 3.39525L3.21427 3.60562L3.50983 2.91631ZM4.63764 1.77156L4.57439 2.30306L5.31914 2.39175L5.38239 1.86025L4.63764 1.77156ZM4.52802 3.49356C4.90789 3.27944 5.25864 2.89969 5.31914 2.39169L4.57439 2.30306C4.55052 2.50362 4.40133 2.70406 4.15971 2.84031L4.52802 3.49356ZM3.21427 3.60562C3.66952 3.80087 4.15521 3.70375 4.52802 3.49356L4.15971 2.84031C3.92821 2.97081 3.69214 2.9945 3.50983 2.91631L3.21421 3.60562H3.21427ZM3.06252 6C3.06252 5.55625 2.90327 5.06119 2.48933 4.75163L2.04014 5.35225C2.21002 5.47931 2.31252 5.71488 2.31252 6H3.06252ZM4.52802 8.50644C4.15521 8.29625 3.66952 8.19912 3.21427 8.39437L3.50983 9.08369C3.69214 9.0055 3.92821 9.02925 4.15971 9.15981L4.52802 8.50644ZM2.48933 7.24844C2.90333 6.93887 3.06252 6.44375 3.06252 6H2.31252C2.31252 6.28519 2.20996 6.52081 2.04008 6.64781L2.48933 7.24844ZM7.40671 8.47188C7.06071 8.678 6.74939 9.03325 6.69383 9.49975L7.43852 9.58844C7.45908 9.41562 7.58346 9.23956 7.79058 9.11613L7.40671 8.47188ZM8.68183 8.34981C8.23846 8.15969 7.76502 8.25838 7.40671 8.47188L7.79058 9.11613C8.00196 8.99019 8.22008 8.96787 8.38621 9.03906L8.68183 8.34981ZM5.31914 9.60825C5.25864 9.10031 4.90789 8.72062 4.52802 8.50644L4.15971 9.15981C4.40133 9.296 4.55052 9.49638 4.57439 9.69694L5.31914 9.60825ZM8.81252 6C8.81252 6.39931 8.96239 6.83838 9.33252 7.11513L9.78164 6.5145C9.64839 6.41488 9.56252 6.22925 9.56252 6H8.81252ZM9.33252 4.88487C8.96239 5.16162 8.81252 5.60063 8.81252 6H9.56252C9.56252 5.77075 9.64839 5.58512 9.78164 5.4855L9.33252 4.88487ZM7.40671 3.52813C7.76502 3.74163 8.23846 3.84031 8.68177 3.65019L8.38621 2.96094C8.22008 3.03219 8.00196 3.00975 7.79058 2.88381L7.40671 3.52813ZM6.69377 2.50025C6.74933 2.96675 7.06071 3.322 7.40671 3.52813L7.79058 2.88381C7.58346 2.76044 7.45914 2.58444 7.43858 2.41156L6.69377 2.50025Z" fill="white" fill-opacity="0.75"/>
<path d="M6 7.5C6.82844 7.5 7.5 6.82844 7.5 6C7.5 5.17156 6.82844 4.5 6 4.5C5.17156 4.5 4.5 5.17156 4.5 6C4.5 6.82844 5.17156 7.5 6 7.5Z" stroke="white" stroke-opacity="0.75" stroke-linecap="round" stroke-linejoin="round"/>
</g>
<defs>
<clipPath id="clip0_10_29">
<rect width="12" height="12" fill="white"/>
</clipPath>
</defs>
</svg>
