<svg width="64" height="64" viewBox="0 0 64 64" fill="none" xmlns="http://www.w3.org/2000/svg">
<mask id="mask0_10_13" style="mask-type:luminance" maskUnits="userSpaceOnUse" x="5" y="5" width="54" height="54">
<path d="M5 5H59V59H5V5Z" fill="white"/>
</mask>
<g mask="url(#mask0_10_13)">
<path d="M50.0927 33.6907C50.0165 26.8593 56.9503 23.577 57.2627 23.4157C53.3615 18.7683 47.2963 18.1354 45.1323 18.061C39.9739 17.6328 35.0592 20.5367 32.4381 20.5367C29.817 20.5367 25.7786 18.123 21.4964 18.1913C15.8655 18.2595 10.6766 20.8531 7.7735 24.9607C1.92928 33.213 6.28006 45.455 11.9795 52.1623C14.7683 55.4384 18.0828 59.1303 22.4488 58.9937C26.6548 58.8572 28.2397 56.7786 33.3144 56.7786C38.389 56.7786 39.8215 58.9937 44.2561 58.9255C48.7745 58.851 51.6395 55.5749 54.4054 52.2864C57.598 48.4829 58.9162 44.7973 58.9924 44.6049C58.8933 44.5739 50.1841 41.8562 50.0927 33.6907" fill="white"/>
</g>
<path d="M41.7492 13.6246C44.0656 11.3413 45.6276 8.16443 45.2009 5C41.8635 5.11169 37.8251 6.81179 35.4326 9.09514C33.2915 11.1117 31.4094 14.3444 31.9199 17.4467C35.6307 17.6825 39.4329 15.9018 41.7492 13.6246Z" fill="white"/>
</svg>
